<!-- SVG for Settings -->
<svg xmlns="http://www.w3.org/2000/svg" fill="currentColor" class="bi bi-gear" viewBox="0 0 16 16">
  <path d="M0 2.75a.75.75 0 0 1 1.5 0v2.086a5.472 5.472 0 0 1 1.5.465c.084-.198.174-.392.271-.583l-.001-.001 1.789-1.79a6.97 6.97 0 0 1 1.416 1.057l-1.789 1.79c.189.097.385.187.583.271l.001-.001a5.472 5.472 0 0 1-.465 1.5H2.75a.75.75 0 0 1 0 1.5H5.14a5.472 5.472 0 0 1-.271 1.583l.001.001-1.79 1.789a6.97 6.97 0 0 1-1.057-1.416l1.79-1.789c-.097-.189-.187-.385-.271-.583l-.001.001a5.472 5.472 0 0 1-1.5-.465V7.75a.75.75 0 0 1-1.5 0V5.364a5.472 5.472 0 0 1-1.5-.465l-.001.001-1.79 1.79a6.97 6.97 0 0 1-1.416-1.057l1.79-1.79c-.189-.097-.385-.187-.583-.271l-.001.001A5.472 5.472 0 0 1 0 2.75zM8 0a8 8 0 0 1 8 8 8 8 0 0 1-8 8 8 8 0 0 1-8-8 8 8 0 0 1 8-8z"/>
</svg>
