<svg xmlns="http://www.w3.org/2000/svg" fill="currentColor" class="bi bi-life-preserver" viewBox="0 0 16 16">
  <path d="M8 1a7 7 0 0 1 7 7c0 2.182.88 4.155 2.328 5.572a1 1 0 1 0 1.352-1.464A6.002 6.002 0 0 1 6 2a1 1 0 0 0-1-1z"/>
  <path d="M4.504 2.496A8.022 8.022 0 0 0 1 8c0 2.182.88 4.155 2.328 5.572a1 1 0 1 0 1.636 1.09A6.002 6.002 0 0 1 6 2a1 1 0 0 0-1-1z"/>
  <path d="M7.442 4.878a1 1 0 0 0-1.097-.222A4.002 4.002 0 1 0 14 8a3.968 3.968 0 0 0-1.117-2.723 1 1 0 0 0-1.414 1.414A2.986 2.986 0 0 1 12 8a2.986 2.986 0 0 1-2.131-.879 1 1 0 0 0-1.414 1.414A3.968 3.968 0 0 0 14 8a3.968 3.968 0 0 0-1.117-2.723 1 1 0 0 0-1.414 1.414A2.986 2.986 0 0 1 12 8a2.986 2.986 0 0 1-2.131-.879 1 1 0 0 0-1.414 1.414 3.968 3.968 0 0 0 1.414 1.414A4.002 4.002 0 0 0 14 8a4.002 4.002 0 0 0-1.785-3.317z"/>
</svg>
