<!-- SVG for Transactions -->
<svg xmlns="http://www.w3.org/2000/svg" fill="currentColor" class="bi bi-arrow-repeat" viewBox="0 0 16 16">
  <path d="M4.504 1.496a7.99 7.99 0 0 0-3.45 1.984 1 1 0 0 0 1.636 1.09A6.002 6.002 0 1 1 6 12a1 1 0 0 0 0 2 8 8 0 1 0-1.496-15.504z"/>
  <path d="M4.504 2.496A8.022 8.022 0 0 0 1 8c0 2.182.88 4.155 2.328 5.572a1 1 0 1 0 1.352-1.464A6.002 6.002 0 0 1 6 2a1 1 0 0 0-1-1z"/>
  <path d="M7.442 4.878a1 1 0 0 0-1.097-.222A4.002 4.002 0 1 0 14 8a3.968 3.968 0 0 0-1.117-2.723 1 1 0 0 0-1.414 1.414 2.986 2.986 0 0 1 0 4.472 2.986 2.986 0 0 1-4.472 0 1 1 0 0 0-1.414-1.414z"/>
</svg>
